<svg width="217" height="334" viewBox="0 0 217 334" fill="none" xmlns="http://www.w3.org/2000/svg">
<g opacity="0.2" clip-path="url(#clip0_255_831)">
<path fill-rule="evenodd" clip-rule="evenodd" d="M77.2298 37.9903C76.998 37.5235 77.4587 37.4934 77.7383 37.2445C78.1337 36.8933 78.1026 36.3771 77.7415 35.9313C77.5373 35.6801 77.344 35.3269 76.9754 35.5714C76.3194 36.0061 77.121 36.2625 77.1641 36.6252C77.2248 37.1485 76.841 37.3816 76.6299 37.7366C76.5066 37.9442 76.6465 38.1574 76.8591 38.2572C77.0332 38.3392 77.1614 38.2511 77.2298 37.9903ZM191.197 182.818C191.57 179.148 192.058 175.472 190.823 171.869C191.168 175.513 191.394 179.16 191.197 182.818ZM105.538 85.114C105.517 86.2463 105.042 86.2542 104.393 85.5333C103.466 84.5051 102.657 83.3749 101.776 82.3072C99.5235 79.5829 97.7964 76.4792 96.0113 73.4341C95.6962 72.8971 94.6947 71.7827 96.41 71.4557C96.2502 70.8802 97.2017 70.6469 96.8175 69.945C96.3062 69.0086 95.9891 70.1847 95.7549 70.0239C94.9157 69.4442 93.6045 69.4983 93.1332 68.5832C92.4129 67.1859 91.5964 65.8522 90.8327 64.4849C89.9347 62.8779 89.1572 61.2033 88.2759 59.5866C86.6252 56.5612 84.9802 53.5303 83.249 50.5503C82.3698 49.0336 81.5342 47.4946 80.6685 45.9746C79.7622 44.3837 78.4601 43.0252 77.4391 41.4927C74.7977 37.5329 71.4367 34.2039 67.6681 31.4283C63.6664 28.4816 58.9804 26.75 54.0931 25.6709C41.3431 22.8562 29.3728 25.0412 18.1914 31.624C11.1268 35.7828 5.6654 41.7141 0.87948 48.2908C0.0628153 49.413 -0.614135 50.6449 -2.24255 48.9224C-1.44691 50.3048 -1.67133 51.1335 -2.90173 51.8796C-3.66691 52.3444 -3.52567 53.6441 -4.43704 54.1469C-3.02622 55.2869 -4.9396 55.4836 -5.03387 56.2017C-5.05348 56.3532 -5.23118 56.4858 -5.24806 56.6363C-5.38058 57.8089 -5.97541 57.6335 -6.83314 57.0315C-5.59044 58.2912 -5.59886 59.3848 -6.80635 60.4603C-7.37339 60.9652 -7.52158 62.0394 -7.34042 62.3222C-6.74713 63.2464 -7.23175 63.9804 -7.56476 64.6122C-8.21834 65.8505 -8.56947 67.0527 -8.85157 68.4575C-9.2433 70.4128 -10.046 72.3482 -10.2426 74.3934C-10.3511 75.5242 -11.2537 76.4923 -11.2836 77.4049C-11.3252 78.6883 -12.2046 79.8528 -11.7492 81.161C-11.7225 81.2364 -11.8976 81.4608 -12.014 81.4956C-12.6541 81.6845 -12.7432 81.7336 -12.343 82.2893C-12.0155 82.7439 -12.0439 83.1851 -12.2742 83.497C-12.9066 84.3534 -12.5364 85.5714 -13.4493 86.3498C-13.7988 86.6481 -13.9698 87.3061 -13.7393 87.879C-12.9954 89.725 -13.6227 91.5549 -14.0063 93.314C-14.7145 96.5519 -15.3191 99.8145 -16.0419 103.05C-16.6469 105.757 -17.1643 108.529 -18.0109 111.138C-19.2032 114.816 -20.8593 118.331 -23.0116 121.648C-27.8785 129.146 -34.0893 135.067 -42.2021 138.826C-47.3091 141.192 -52.6015 143.164 -57.3793 146.203C-59.5947 147.614 -61.8951 149.034 -63.419 151.174C-66.4317 155.406 -68.0816 160.231 -68.9581 165.341C-69.0777 166.036 -68.6814 167.221 -70.0915 167.355C-70.5161 167.396 -70.1313 167.791 -70.0554 167.998C-69.0448 170.747 -69.5663 173.663 -69.4831 176.455C-69.417 178.671 -68.9224 180.782 -68.6167 182.894C-68.1844 185.887 -66.9749 188.766 -66.1061 191.696C-66.0892 191.753 -66.1865 191.846 -66.1749 191.826C-66.792 192.055 -66.3583 191.062 -67.1902 191.35C-66.2668 192.004 -67.0302 193.734 -65.248 193.797C-65.0906 193.802 -64.539 194.568 -65.0289 195.231C-65.2497 195.529 -65.4777 196.297 -64.7077 196.475C-63.9907 196.642 -62.9928 197.672 -63.0828 198.304C-63.206 199.167 -63.1992 199.157 -62.5686 199.571C-62.3455 199.717 -62.0926 199.889 -61.9749 200.112C-60.5814 202.769 -58.786 205.163 -57.0175 207.559C-55.7087 209.332 -54.6562 211.435 -52.5292 212.432C-50.5585 213.356 -49.317 215.07 -47.7673 216.456C-45.6629 218.336 -44.2134 220.772 -42.2191 222.759C-39.827 225.142 -37.0267 227.031 -34.6094 229.355C-29.7398 234.037 -23.5028 236.143 -17.2993 237.804C-12.7406 239.024 -7.7655 238.523 -2.96827 237.892C5.38198 236.791 13.6732 235.218 22.0866 234.62C29.944 234.061 37.8056 233.6 45.6875 233.774C53.8924 233.955 62.1268 233.901 70.2529 235.167C82.1099 237.014 94.0326 238.293 106.007 238.817C118.008 239.341 129.796 237.586 141.379 234.24C157.404 229.609 170.018 220.316 179.608 206.795C183.129 201.829 186.407 196.738 188.035 190.72C192.204 175.319 188.254 161.453 180.151 148.479C174.612 139.609 166.85 132.745 158.628 126.433C155.374 123.935 152.407 121.055 148.817 118.996C146.484 117.659 144.482 115.813 141.995 114.682C141.105 114.278 140.556 112.991 139.671 112.742C138.065 112.291 136.781 111.287 135.278 110.707C134.088 110.248 133.454 108.936 132.329 108.552C130.095 107.789 128.357 106.25 126.363 105.123C122.088 102.71 118.487 99.3573 114.548 96.4749C112.991 95.3358 111.798 93.8285 110.413 92.5169C107.844 90.0868 106.771 88.2559 106.015 85.7059C105.946 85.4713 105.675 85.298 105.514 85.1013C106.104 85.0746 106.826 85.5177 107.168 84.625C107.592 83.5214 106.423 83.8759 106.103 83.4548C105.886 83.1681 105.758 82.6898 105.284 83.1958C104.944 83.559 104.789 83.8727 105.274 84.2618C105.515 84.4536 105.688 84.7564 105.538 85.114ZM139.087 108.137C139.3 108.111 139.619 107.981 139.71 108.073C141.603 110.035 144.353 110.501 146.513 111.98C148.96 113.657 151.459 115.251 153.964 116.84C157.677 119.197 161.248 121.734 164.66 124.556C168.061 127.369 171.56 130.079 174.726 133.146C180.925 139.145 186.194 145.857 190.127 153.616C191.394 156.115 192.428 158.713 193.308 161.305C194.241 164.051 194.792 167.01 195.533 169.829C196.191 172.323 196.228 174.81 196.51 177.266C196.808 179.847 196.373 182.544 196.051 185.165C195.374 190.658 193.788 195.884 190.898 200.657C188.314 204.926 185.672 209.162 182.349 212.914C175.925 220.172 168.692 226.48 160.144 231.106C148.077 237.635 135.111 241.253 121.531 242.957C104.808 245.056 88.286 243.082 71.8013 240.827C58.4602 239.001 45.1172 238.508 31.6688 238.935C18.9258 239.342 6.42665 241.573 -6.15984 243.229C-12.6746 244.087 -19.2741 244.363 -25.714 242.51C-30.5097 241.131 -34.8271 238.764 -38.5309 235.441C-43.5397 230.946 -48.2006 226.105 -52.0869 220.573C-52.3846 220.15 -52.8822 219.783 -52.5424 219.134C-52.3774 218.819 -52.6067 218.525 -52.8509 218.491C-55.2589 218.157 -56.2351 216.041 -57.598 214.53C-61.2593 210.471 -64.584 206.138 -67.0169 201.193C-67.2293 200.761 -67.6021 200.37 -67.0716 199.609C-64.7253 202.668 -63.2881 206.278 -60.5678 208.955C-66.7079 200.078 -71.2193 190.538 -72.7927 179.512C-73.0889 180.685 -72.7623 183.376 -72.2688 185.038C-71.4482 187.802 -70.7497 190.607 -69.8222 193.333C-69.2659 194.968 -68.3433 196.473 -67.6514 198.067C-67.4871 198.445 -66.9199 199.021 -67.5499 199.339C-68.1448 199.639 -68.3855 198.938 -68.548 198.517C-69.9248 194.964 -71.5972 191.526 -72.6447 187.844C-74.4769 181.4 -75.119 174.875 -74.0923 168.211C-73.3072 163.114 -71.8291 158.352 -69.1425 153.817C-65.5979 147.836 -60.1351 144.454 -54.3924 141.188C-49.6244 138.475 -44.289 136.97 -39.6439 134.017C-35.5141 131.392 -32.3028 127.877 -29.3015 124.044C-25.1984 118.803 -23.0901 112.8 -21.7429 106.439C-21.1531 103.654 -20.7064 100.84 -20.1594 98.0451C-20.0049 97.2546 -20.1226 96.191 -18.7747 96.2712C-18.5768 96.2829 -18.3654 95.9991 -18.4687 95.7738C-18.8264 94.9969 -18.7554 95.9583 -19.0141 95.9327C-19.8621 95.848 -19.5815 95.2627 -19.5158 94.8513C-19.1001 92.2669 -18.6477 89.6885 -18.2074 87.1084C-17.0574 80.3717 -15.6815 73.6839 -13.6092 67.1602C-12.8591 64.7998 -12.2597 62.3338 -10.8295 60.2943C-10.4472 59.7494 -10.2223 58.1295 -8.72759 58.8494C-8.62273 58.3224 -8.81845 57.9198 -9.11667 57.4937C-9.46991 56.9881 -9.45885 56.3711 -8.76232 56.2175C-8.20089 56.0944 -8.20025 55.8393 -8.24107 55.4299C-8.333 54.5124 -8.44982 53.5568 -7.02653 54.3652C-6.70914 53.6971 -6.00411 52.924 -6.15017 52.3849C-6.53369 50.9802 -5.48551 50.2869 -4.81808 49.7489C-3.87563 48.9894 -3.55343 47.1207 -1.30763 48.0181C-3.31103 46.3796 -3.35956 46.3404 -1.83085 44.4389C5.18186 35.7223 13.6309 28.9704 24.2599 25.0942C35.0481 21.1592 46.0233 20.0478 57.188 22.793C61.4822 23.8489 65.8489 24.9866 69.4807 27.8455C70.2751 28.4724 71.6241 28.4222 71.6408 29.872C74.4192 29.8426 75.6286 32.2481 76.9963 33.8866C78.0911 35.1995 79.9746 36.06 80.2406 38.0581C80.2991 38.4983 80.7448 38.4118 81.0426 38.4519C81.8487 38.5641 82.3121 39.5146 82.2393 39.7916C81.8405 41.3129 83.0114 41.5472 83.8249 42.2028C85.2581 43.3596 86.0455 45.061 86.7286 46.6862C87.4711 48.4518 88.2655 50.1469 89.4199 51.6643C89.7906 52.1516 90.5485 52.5033 89.7263 53.2176C89.6768 53.2602 89.7216 53.4121 89.7222 53.5144C91.3042 52.9581 90.6362 55.1862 91.7869 55.1897C91.9084 55.189 92.1485 55.4178 92.1301 55.4897C91.617 57.5418 93.8333 58.421 94.1178 60.1724C94.2751 61.142 95.5513 61.5758 95.831 62.617C95.8643 62.7368 96.1671 62.8723 96.1507 62.9066C95.4154 64.4149 97.287 65.3256 97.0017 66.7403C96.8675 67.4091 97.4628 67.6358 97.9235 67.9123C98.1834 68.0669 98.15 67.0348 98.4332 67.743C98.8914 68.8858 99.7335 69.7467 100.35 70.7489C101.272 72.2438 99.7977 72.109 98.8545 72.3186C99.8916 72.4417 100.556 73.6349 101.741 73.1028C102.066 72.9571 102.065 73.2569 102.146 73.4208C103.049 75.2621 104.337 76.859 105.396 78.5986C105.891 79.413 106.318 80.3272 106.505 81.2516C106.648 81.9592 107.075 82.4419 107.538 82.5989C108.179 82.8181 108.623 82.5682 107.918 83.4824C107.483 84.0478 108.536 83.9596 108.904 84.0949C109.474 84.3052 110.051 84.3693 110.263 85.0884C110.492 85.865 109.692 85.9357 109.32 86.329C109.952 86.6451 110.236 86.085 110.669 86.0818C110.995 86.0799 111.45 85.9714 111.424 86.4355C111.311 88.3957 113 88.4514 114.112 89.2458C115.797 90.4531 117.35 91.8995 118.746 93.438C120.626 95.5084 123.015 96.8736 125.193 98.5307C127.819 100.53 130.792 102.018 133.36 104.108C134.267 104.846 135.686 105.03 136.279 106.022C136.985 107.201 138.64 106.859 139.132 108.145C138.461 108.418 137.648 108.364 137.01 109.047C137.302 109.196 137.475 109.317 137.667 109.375C138.193 109.534 138.582 109.989 138.379 110.397C138.113 110.932 137.673 110.558 137.33 110.248C136.832 109.802 136.627 110.426 136.282 110.542C136.358 110.808 136.544 110.698 136.69 110.719C138.913 111.033 138.905 111.034 138.884 108.899C138.883 108.646 139.016 108.391 139.087 108.137Z" fill="#1f4d3a"/>
</g>
<defs>
<clipPath id="clip0_255_831">
<rect width="222.35" height="248.664" fill="white" transform="translate(-117 157.227) rotate(-45)"/>
</clipPath>
</defs>
</svg>
