<svg width="64" height="84" viewBox="0 0 64 84" fill="none" xmlns="http://www.w3.org/2000/svg">
<path fill-rule="evenodd" clip-rule="evenodd" d="M48.0948 48.9863C49.6166 43.6018 51.1052 38.3566 52.5792 33.1065C53.1287 31.1477 53.7712 29.2024 54.1391 27.2083C54.6146 24.6325 53.2484 23.3262 51.1451 22.771C45.4749 21.2754 41.2701 23.9553 37.1228 27.1509C36.0729 27.9602 34.9379 28.6602 33.8253 29.387C32.2518 30.4152 32.0932 30.3352 31.8208 28.3926C31.3439 24.9887 32.1609 21.6888 32.7202 18.3733C33.4925 13.8026 34.6498 9.29602 35.1283 4.67717C35.3239 2.78824 34.2467 0.66319 32.9362 0.439029C31.5828 0.206495 30.1875 0.133337 28.8091 0.129506C25.0198 0.119732 21.8516 1.90448 18.8 3.89755C13.2258 7.53817 7.52354 10.9913 2.31033 15.1666C1.62018 15.7197 0.707043 16.1466 0.474937 17.0327C0.246319 17.9023 -0.304821 19.3185 1.68063 18.7411C1.99377 18.6502 2.28985 18.6078 2.5514 18.8792C4.30881 20.7043 5.96969 19.5839 7.61986 18.6603C12.443 15.9634 17.2573 13.248 22.0842 10.557C22.5521 10.2962 23.088 9.69434 23.6051 10.1784C23.9754 10.5248 23.5419 11.1359 23.4918 11.6309C23.1287 15.2266 21.6496 18.5667 21.0648 22.1115C20.7431 24.0607 20.4738 26.0098 20.6145 27.9912C20.7057 29.2627 20.7745 30.5145 21.8919 31.4206C22.209 31.6776 22.487 32.1644 22.5158 32.5668C22.6879 34.9712 24.693 35.2202 26.3192 35.9112C30.7988 37.8136 35.1755 37.4668 39.4659 35.2174C39.6156 35.1391 39.8293 35.1824 40.1796 35.1568C39.9145 36.4537 39.945 37.6406 39.4776 38.9363C37.8008 43.5778 36.0161 48.2014 35.2751 53.1398C34.9831 55.0884 35.5964 56.6906 36.7099 58.0153C37.669 59.1559 39.4789 58.7877 40.7752 59.6594C43.2926 61.3533 45.8569 60.3818 48.309 59.2349C49.4517 58.7 50.5325 58.0294 51.6541 57.4132C52.4154 59.9501 51.0611 62.1418 50.4996 64.3645C49.6629 67.6785 49.1744 71.0155 48.7262 74.3746C48.4382 76.5294 47.6773 78.5976 48.0077 80.8722C48.2812 82.7523 49.9176 82.8175 50.9783 83.3088C51.7106 83.649 53.0071 82.9764 53.2675 81.4576C55.0836 70.8534 58.8088 60.8541 63.1654 51.062C64.0102 49.1633 63.7415 47.077 62.5005 46.6127C61.2996 46.1623 59.9938 45.9298 58.7125 45.7624C55.5241 45.3458 52.7515 46.5754 50.0857 48.1656C49.5557 48.4811 49.1293 49.0289 48.0948 48.9863Z" fill="#1f4d3a"/>
</svg>
