<svg width="195" height="187" viewBox="0 0 195 187" fill="none" xmlns="http://www.w3.org/2000/svg">
<g clip-path="url(#clip0_255_833)">
<path d="M78.4306 108.088C85.3274 116.779 86.583 126.725 86.121 137.056C85.8797 142.834 84.9737 148.511 82.7573 153.913C81.8362 156.203 80.7908 158.383 79.21 160.266C78.2185 161.384 77.1745 162.411 75.8821 163.218C73.479 164.727 70.8007 164.394 68.5978 162.573C67.212 161.433 66.2476 159.868 65.5177 158.289C64.2678 155.494 63.5969 152.546 63.2513 149.532C62.3041 141.591 63.3897 133.81 65.6088 126.102C67.1361 120.976 69.0937 115.965 71.5149 111.232C71.6827 110.893 71.7596 110.606 71.9467 110.195C70.2074 108.653 68.1132 107.861 65.9089 107.193C56.7714 104.284 47.3686 103.225 37.8107 103.893C34.6725 104.128 31.5677 104.526 28.4769 105.159C22.4964 106.247 16.9974 108.694 12.181 112.324C11.3241 112.94 10.4671 113.556 9.53841 114.153C9.44748 114.205 9.30401 114.167 8.94538 114.071C9.22337 113.607 9.39119 113.268 9.63073 112.947C14.0233 107.744 19.3994 104.033 25.8501 101.764C33.8942 98.9994 42.1943 98.1484 50.5789 98.7037C57.452 99.1616 64.1329 100.337 70.5204 102.894C71.9165 103.422 73.3267 104.184 74.8278 104.894C75.0673 104.573 75.3261 104.182 75.5849 103.79C79.2705 97.7814 83.257 92.0844 88.1518 87.0148C92.0934 82.9202 96.3692 79.2995 101.352 76.4833C104.061 74.9798 106.928 73.7491 109.947 73.0974C117.684 71.4804 123.636 74.2284 127.301 81.2069C127.511 81.5706 127.721 81.9344 128.036 82.4801C128.534 81.768 128.903 81.2518 129.363 80.6832C132.612 76.0185 136.056 71.4832 140.017 67.3169C143.427 63.7717 147.138 60.5378 151.484 58.0892C153.576 56.8815 155.734 55.9992 158.103 55.4806C163.796 54.3155 168.506 55.9619 172.213 60.4913C172.92 61.2958 173.445 62.2053 174.185 63.1724C174.683 62.4603 175.052 61.9441 175.44 61.3562C178.914 56.137 182.8 51.1047 187.163 46.5849C188.245 45.4143 189.452 44.3538 190.711 43.3843C191.314 42.8541 192.147 42.6159 192.927 42.2868C193.597 42.0819 194.243 42.2549 194.591 42.9632C194.939 43.6716 194.57 44.1878 193.986 44.6463C192.799 45.635 191.664 46.7147 190.601 47.8136C185.265 53.3798 180.695 59.5352 176.588 65.9687C176.199 66.5566 175.883 67.1637 176.212 67.9438C179.106 75.7919 179.546 83.905 178.938 92.1986C178.15 103.749 175.601 114.982 171.331 125.755C169.882 129.441 168.184 132.907 165.665 135.999C164.745 137.136 163.682 138.235 162.533 139.08C159.67 141.157 156.69 140.513 154.723 137.526C153.53 135.668 152.915 133.659 152.573 131.491C151.779 127.281 151.852 122.995 152.301 118.734C153.105 110.57 155.2 102.751 158.103 95.0724C161.611 85.7108 166.013 76.7425 171.074 68.1816C171.65 67.1825 171.861 66.3936 171.121 65.4264C170.223 64.1865 169.435 62.8223 168.428 61.7066C166.163 59.2548 163.332 58.3425 160.046 58.8456C157.807 59.1682 155.811 60.0173 153.901 61.1199C150.575 62.9193 147.707 65.3028 144.943 67.8681C139.159 73.3907 134.315 79.7037 129.916 86.3664C129.528 86.9543 129.322 87.4372 129.507 88.1788C130.986 95.5708 130.537 102.984 129.332 110.35C128.046 118.308 125.898 126.035 122.551 133.364C121.261 136.17 119.827 138.938 117.877 141.337C117.068 142.35 116.115 143.325 115.076 144.046C112.524 145.822 109.818 145.02 108.659 142.173C108.106 140.794 107.806 139.33 107.669 137.833C107.325 133.666 107.971 129.534 108.76 125.441C111.483 112.409 116.998 100.433 123.871 89.1287C124.13 88.7368 124.317 88.3257 124.648 87.953C125.127 87.3126 125.156 86.6286 124.88 85.9395C124.221 84.3793 123.673 82.6949 122.742 81.2923C120.656 77.8888 117.458 76.34 113.487 76.8136C111.43 77.0311 109.329 77.6983 107.353 78.4756C103.907 79.8586 100.881 81.9692 98.0326 84.281C92.0429 89.1337 87.1519 95.05 82.8297 101.426C81.3732 103.419 79.9832 105.737 78.4306 108.088ZM173.491 71.2123C173.161 71.5851 173.051 71.7093 172.921 71.9053C172.682 72.2254 172.495 72.6366 172.255 72.9568C167.083 81.6419 162.715 90.7729 159.527 100.374C157.194 107.36 155.435 114.499 155.129 121.952C155.001 125.3 154.964 128.595 155.773 131.887C156.163 133.299 156.717 134.677 157.452 135.95C158.134 137.133 159.229 137.349 160.326 136.413C161.312 135.601 162.265 134.626 163.003 133.594C165.638 130.072 167.327 126.065 168.819 121.93C172.016 112.869 173.974 103.553 174.856 93.9492C175.457 87.1145 175.518 80.2888 174.101 73.5282C173.877 72.93 173.763 72.2076 173.491 71.2123ZM75.5059 113.839C75.0601 114.642 74.7629 115.178 74.5566 115.661C73.7316 117.592 72.854 119.433 72.1007 121.383C69.3705 128.416 67.6638 135.647 67.5543 143.228C67.5065 147.136 67.8751 150.925 69.1095 154.638C69.591 155.997 70.2544 157.251 71.0088 158.453C72.0641 159.966 73.0734 159.929 74.4095 158.672C74.9218 158.195 75.3817 157.626 75.6981 157.019C76.4988 155.465 77.3905 153.859 77.9952 152.176C80.1693 146.07 80.9422 139.743 80.8352 133.257C80.7127 127.689 79.7769 122.287 77.377 117.185C76.8903 116.132 76.241 115.113 75.5059 113.839ZM112.195 140.737C112.339 140.775 112.554 140.833 112.717 140.8C113.248 140.25 113.904 139.811 114.364 139.242C115.231 138.014 116.19 136.733 116.933 135.395C120.499 128.97 122.669 122.018 124.214 114.821C125.656 108.289 126.525 101.602 126.333 94.8622C126.324 94.3216 126.243 93.7619 126.162 93.2021C125.578 93.6606 125.138 94.1575 124.912 94.7121C122.918 98.7134 120.727 102.586 118.947 106.645C115.6 113.973 113.094 121.605 111.97 129.529C111.565 132.188 111.59 134.963 111.635 137.665C111.509 138.708 111.924 139.742 112.195 140.737Z" fill="#1f4d3a" fill-opacity="0.2"/>
</g>
<defs>
<clipPath id="clip0_255_833">
<rect width="161.881" height="150" fill="white" transform="translate(156.365 186.785) rotate(-165)"/>
</clipPath>
</defs>
</svg>
